# xmcd CD database file
#
# Track frame offsets:
#	150
#	19272
#	39801
#	59942
#	79334
#	101669
#	124815
#	136928
#
# Disc length: 2168 seconds
#
# Revision: 0
# Processed by: cddbd v1.5.2PL0 Copyright (c) Steve Scherf et al.
# Submitted via: CDex 1.51
#
DISCID=6c087608
DTITLE=Magnolia Electric Co - What Comes After The Blues
DYEAR=2005
DGENRE=Country
TTITLE0=The Dark Don't Hide It
TTITLE1=The Night Shift Lullabye
TTITLE2=Leave The City
TTITLE3=Hard To Love A  Man
TTITLE4=Give Something Else Away Every Day
TTITLE5=Northstar Blues
TTITLE6=Hammer Down
TTITLE7=I Can Not Have Seen The Light
EXTD=YEAR: 2005
EXTT0=
EXTT1=
EXTT2=
EXTT3=
EXTT4=
EXTT5=
EXTT6=
EXTT7=
PLAYORDER=
